<svg xmlns="http://www.w3.org/2000/svg" viewBox="0 0 23 23"><path d="M1 1h7v7h-7zM9 1h2v1h1v1h-2v-1h-1zM15 1h7v7h-7zM2 2v5h5v-5zM16 2v5h5v-5zM3 3h3v3h-3zM9 3h1v1h-1zM13 3h1v6h-1v-2h-1v-2h1zM17 3h3v3h-3zM10 4h2v1h-1v1h-1zM9 6h1v2h-1zM11 7h1v2h-1v3h-1v-4h1zM1 9h1v1h-1zM3 9h1v1h-1zM7 9h2v5h-6v-1h2v-2h-1v-1h2v1h2v-1h-1zM16 9h1v1h-1zM19 9h1v1h1v1h-2v3h-1v-1h-1v-1h-1v-1h2v-1h1zM21 9h1v1h-1zM2 10h1v1h-1zM12 10h1v1h1v-1h2v1h-1v1h1v1h1v2h-1v-1h-4zM21 11h1v1h-1zM1 12h1v1h-1zM6 12v1h2v-1zM13 12v1h1v-1zM20 13h2v1h-2zM9 14h1v2h-1zM11 14h1v3h-1v1h2v1h1v-1h1v-1h3v-1h-1v-1h2v4h3v3h-10v-2h-1v-1h-1v-3h1zM19 14h1v1h-1zM1 15h7v7h-7zM15 15h1v1h-1zM20 15h2v1h-1v1h-1zM2 16v5h5v-5zM13 16h1v1h-1zM3 17h3v3h-3zM21 17h1v1h-1zM17 18v1h-2v1h1v1h1v-1h1v-2zM9 19h1v1h-1zM13 20v1h1v-1zM19 20v1h2v-1zM9 21h1v1h-1z"/></svg>