<svg xmlns="http://www.w3.org/2000/svg" viewBox="0 0 23 23"><path d="M1 1h7v7h-7zM9 1h2v1h-2zM12 1h1v3h1v2h-1v-1h-1v1h1v1h-1v1h1v-1h1v2h-1v1h1v1h-1v1h-2v-1h1v-2h-2v2h-2v-1h-1v-1h2v-5h1v-1h1v1h1zM15 1h7v7h-7zM2 2v5h5v-5zM16 2v5h5v-5zM3 3h3v3h-3zM17 3h3v3h-3zM10 7v1h1v-1zM1 9h1v1h-1zM5 9h1v1h-1zM14 9h5v2h1v1h-3v1h-1v1h1v1h-2v1h-1v1h-1v1h1v1h-1v1h-1v1h-1v-1h-1v-1h2v-1h-1v-2h2v-3h1v-1h1v-1h3v-1h-4zM21 9h1v2h-2v-1h1zM4 10h1v1h1v1h-4v-1h2zM6 10h1v1h-1zM7 11h1v1h-1zM1 12h1v1h2v1h-3zM10 12h1v1h-1zM20 12h2v3h-2zM5 13h5v1h1v-1h1v2h-2v1h-1v-2h-4zM17 13h1v1h-1zM1 15h7v7h-7zM17 15h3v1h-2v1h-2v-1h1zM2 16v5h5v-5zM20 16h1v1h-1zM3 17h3v3h-3zM9 17h1v1h-1zM15 17h1v1h-1zM19 17h1v1h1v-1h1v2h-2v2h1v-1h1v2h-3v-1h-1v-2h1zM16 18h1v1h-1zM15 19h1v1h1v1h-1v1h-3v-1h1v-1h1zM9 21h1v1h-1z"/></svg>