<svg xmlns="http://www.w3.org/2000/svg" viewBox="0 0 23 23"><path d="M1 1h7v7h-7zM10 1h1v1h-1zM15 1h7v7h-7zM2 2v5h5v-5zM16 2v5h5v-5zM3 3h3v3h-3zM9 3h1v2h1v-2h3v3h-1v-1h-1v1h-1v1h-1v1h1v-1h1v2h1v1h2v-1h5v1h-1v1h-1v-1h-1v2h5v1h-4v1h-2v-1h-2v2h-1v-2h-2v-1h2v-1h-1v-1h-1v1h-2v-1h1v-1h-1zM17 3h3v3h-3zM12 6h1v1h-1zM13 7h1v1h-1zM1 9h1v2h-1zM3 9h5v1h-2v1h3v2h-1v-1h-2v2h-1v-1h-1v-1h1v-1h-1v1h-1zM20 10h1v1h-1zM14 11v1h1v-1zM1 12h1v2h-1zM3 13h1v1h-1zM7 13h1v1h-1zM9 14h3v1h-1v3h-1v2h-1v-4h1v-1h-1zM1 15h7v7h-7zM12 15h1v1h-1zM14 15h1v1h-1zM2 16v5h5v-5zM16 16h1v2h-1zM18 16h3v2h-1v1h-1v-2h-1zM3 17h3v3h-3zM12 17h1v1h1v-1h1v1h1v2h1v-1h1v2h-1v1h-1v-1h-2v1h-1v-1h-1v1h-3v-1h2v-1h2v-1h-1zM14 19v1h1v-1zM21 20h1v1h-1zM19 21h1v1h-1z"/></svg>