<svg xmlns="http://www.w3.org/2000/svg" viewBox="0 0 23 23"><path d="M1 1h7v7h-7zM9 1h1v1h-1zM12 1h2v2h-1v-1h-1zM15 1h7v7h-7zM2 2v5h5v-5zM11 2h1v3h2v4h-1v-2h-1v-1h-2v-1h1zM16 2v5h5v-5zM3 3h3v3h-3zM9 3h1v1h-1zM17 3h3v3h-3zM9 6h1v2h-1zM11 7h1v1h-1zM10 8h1v1h1v1h-2zM1 9h1v1h-1zM3 9h1v1h-1zM7 9h2v1h-2zM16 9h1v1h-1zM19 9h1v2h-1v3h-1v-1h-1v-1h-1v-1h2v-1h1zM21 9h1v5h-2v-3h1zM4 10h1v1h-1zM12 10h1v1h1v-1h2v1h-1v1h1v1h1v2h-1v-1h-6v2h-1v-2h-2v-1h2v-1h2v1h1v-1h-1v-1h1zM2 11h1v1h-1zM5 11h3v1h-2v2h-1v-1h-1v-1h1zM13 12v1h1v-1zM2 13h1v1h-1zM19 14h1v1h-1zM1 15h7v7h-7zM11 15h1v2h-1zM15 15h1v1h-1zM17 15h2v2h1v1h-3v1h-2v1h1v1h1v-1h1v1h1v-1h1v1h1v-1h-1v-1h2v3h-13v-1h3v-2h-1v-1h2v1h1v-1h1v-1h3v-1h-1zM20 15h2v1h-1v1h-1zM2 16v5h5v-5zM13 16h1v1h-1zM3 17h3v3h-3zM10 17h1v1h-1zM21 17h1v1h-1zM9 19h1v1h-1zM18 19h1v1h-1zM13 20v1h1v-1z"/></svg>