<svg xmlns="http://www.w3.org/2000/svg" viewBox="0 0 23 23"><path d="M1 1h7v7h-7zM9 1h1v1h1v2h1v1h-1v2h-1v-2h-1v-1h1v-1h-1zM12 1h2v4h-1v-2h-1zM15 1h7v7h-7zM2 2v5h5v-5zM16 2v5h5v-5zM3 3h3v3h-3zM17 3h3v3h-3zM12 5h1v1h1v4h1v-1h1v1h1v1h-4v2h-2v-1h1v-3h-1v2h-2v-1h1v-1h-1v-2h1v1h1v-1h1v1h1v-1h-1zM1 9h1v1h-1zM3 9h2v1h-2zM6 9h3v1h-3zM18 9h1v2h1v-2h2v1h-1v1h1v2h-1v-1h-2v1h-1zM2 10h1v1h1v1h-1v1h2v1h-3v-1h-1v-1h1zM5 11h1v1h1v1h1v-1h-1v-1h2v3h-3v-1h-1zM15 12h1v1h-1zM13 13h1v1h-1zM16 13h2v1h-1v1h1v1h-1v1h-1v-2h-1v-1h1zM9 14h2v1h-1v2h-1zM12 14h1v1h1v1h-3v-1h1zM18 14h2v1h1v2h1v1h-1v1h-1v-2h-1v1h-1v-2h1v-1h-1zM21 14h1v1h-1zM1 15h7v7h-7zM2 16v5h5v-5zM3 17h3v3h-3zM10 17h1v1h-1zM13 17h3v1h2v2h2v1h-2v1h-1v-3h-1v1h-1v-2h-2zM9 18h1v1h1v-1h2v1h-1v2h-1v-1h-2zM13 19h1v1h-1zM14 20h1v2h-1zM9 21h2v1h-2zM20 21h1v1h-1z"/></svg>