<svg xmlns="http://www.w3.org/2000/svg" viewBox="0 0 23 23"><path d="M1 1h7v7h-7zM11 1h1v1h1v1h-1v1h1v1h-2v1h1v2h-1v-1h-1v-1h-1v-1h1v-1h1zM15 1h7v7h-7zM2 2v5h5v-5zM9 2h1v1h-1zM16 2v5h5v-5zM3 3h3v3h-3zM13 3h1v1h-1zM17 3h3v3h-3zM13 5h1v4h-1v1h-1v-2h1zM9 7h1v1h-1zM10 8h1v3h1v1h-1v1h1v1h-1v1h-2v-1h1v-3h-1v-1h1zM1 9h1v3h-1zM3 9h1v1h1v-1h1v1h1v1h-2v1h-1v1h-1v1h-2v-1h1v-1h1zM7 9h1v1h-1zM17 9h1v1h-1zM20 9h1v1h1v1h-3v-1h1zM15 10h2v1h-2zM7 11h2v2h-1v-1h-1zM13 11h1v1h-1zM17 11h1v2h-2v1h-1v-2h2zM5 12h1v1h2v1h-4v-1h1zM13 13h1v1h-1zM20 13h2v1h-1v1h-3v-1h2zM12 14h1v2h1v-2h1v1h3v1h-1v1h-1v-1h-1v1h1v2h-1v-1h-1v-1h-1v1h-1zM1 15h7v7h-7zM21 15h1v1h-1zM2 16v5h5v-5zM3 17h3v3h-3zM9 17h2v1h-2zM17 17h1v1h-1zM19 17h3v1h-1v1h-1v-1h-1zM11 18h1v2h-3v-1h2zM18 18h1v1h-1zM13 19h1v1h-1zM16 19h1v1h4v-1h1v3h-1v-1h-1v1h-1v-1h-1v1h-1v-1h-1v1h-1v-2h1zM9 21h1v1h-1zM13 21h1v1h-1z"/></svg>